Coordinates
version=1
nRows=14
nColumns=40
inDegrees=yes

Units are S.I. units (second, meters, Newtons, ...)
Angles are in degrees.

endheader
time	pelvis_tilt	pelvis_list	pelvis_rotation	pelvis_tx	pelvis_ty	pelvis_tz	hip_flexion_r	hip_adduction_r	hip_rotation_r	knee_angle_r	knee_angle_r_beta	ankle_angle_r	subtalar_angle_r	mtp_angle_r	hip_flexion_l	hip_adduction_l	hip_rotation_l	knee_angle_l	knee_angle_l_beta	ankle_angle_l	subtalar_angle_l	mtp_angle_l	lumbar_extension	lumbar_bending	lumbar_rotation	arm_flex_r	arm_add_r	arm_rot_r	elbow_flex_r	pro_sup_r	wrist_flex_r	wrist_dev_r	arm_flex_l	arm_add_l	arm_rot_l	elbow_flex_l	pro_sup_l	wrist_flex_l	wrist_dev_l
      0.73000000	     -3.49192913	     -2.22508402	      7.75090361	     -0.68355731	      0.88492222	     -1.43048247	     25.09104975	     -0.23950274	    -14.93709589	    -26.63193218	     -0.46481490	      1.34578180	    -10.49548156	      5.32418896	      1.41351741	      5.58602878	      1.87455575	    -37.92184146	     -0.66186099	      7.07394523	     11.50181312	     -4.37914729	     -0.59760974	      1.45521681	     -8.33317735	     -3.64144899	     -7.26009424	    -14.47368522	     22.47630539	     89.95437384	      0.00000000	      0.00000000	      3.41178814	     11.42828710	     16.66448168	     37.55208375	     89.95437384	      0.00000000	      0.00000000
      0.74000000	     -3.68839182	     -2.36567019	      7.57465118	     -0.67606086	      0.88513469	     -1.42843806	     24.76405885	      0.22128074	    -14.81672967	    -26.50482850	     -0.46259652	      1.69697302	    -10.45935192	      5.41373522	      2.22733300	      5.84252839	      1.58245931	    -39.56802202	     -0.69059226	      5.41614532	     12.15216463	     -4.00240095	     -0.24174743	      1.59233459	     -8.25516065	     -3.62344376	     -7.30432877	    -14.34970177	     22.62459476	     89.95437384	      0.00000000	      0.00000000	      2.88669768	     11.36670261	     16.80118567	     37.51465825	     89.95437384	      0.00000000	      0.00000000
      0.75000000	     -3.67792509	     -2.21815816	      7.41368990	     -0.66868749	      0.88562754	     -1.42657303	     24.22309896	      0.33619526	    -14.71443290	    -26.50899524	     -0.46266925	      2.12691553	    -10.18940104	      5.31687276	      2.88872962	      5.89845918	      1.57904325	    -41.34727028	     -0.72164600	      3.65994464	     12.35677008	     -3.67268399	     -0.20241243	      1.44294504	     -8.13942517	     -3.60868271	     -7.31216250	    -14.19608291	     22.87806148	     89.95437384	      0.00000000	      0.00000000	      2.46327383	     11.36575035	     16.83452872	     37.38556741	     89.95437384	      0.00000000	      0.00000000
      0.76000000	     -3.94965561	     -2.47454269	      7.33102343	     -0.66150616	      0.88558469	     -1.42452473	     23.97016812	      0.83334431	    -14.86658743	    -26.32418542	     -0.45944371	      2.43361766	    -10.10887583	      5.49685382	      4.12923103	      6.37616208	      1.41891327	    -43.40448327	     -0.75755114	      1.58185584	     12.86896873	     -3.12730022	      0.21791519	      1.68590497	     -8.10604750	     -3.62189489	     -7.37406550	    -13.97525633	     23.13283993	     89.95437384	      0.00000000	      0.00000000	      1.97734212	     11.28760322	     16.98184169	     37.31562397	     89.95437384	      0.00000000	      0.00000000
      0.77000000	     -3.86358395	     -2.48339117	      7.20125353	     -0.65425616	      0.88608146	     -1.42253752	     23.36115724	      1.08258084	    -14.94748927	    -26.34197641	     -0.45975422	      2.99130161	     -9.82320295	      5.37412859	      4.90002280	      6.66512633	      1.43771790	    -45.30647974	     -0.79074724	     -0.90932162	     13.34429029	     -2.68172110	      0.18384490	      1.70716449	     -7.97453207	     -3.55437143	     -7.41711220	    -13.76969436	     23.34723754	     89.95437384	      0.00000000	      0.00000000	      1.64366362	     11.26619808	     17.01751986	     37.06437852	     89.95437384	      0.00000000	      0.00000000
      0.78000000	     -3.87133350	     -2.57188073	      7.10460577	     -0.64712556	      0.88633690	     -1.42057422	     22.78185345	      1.39519318	    -15.07745197	    -26.16717044	     -0.45670328	      3.48632933	     -9.41133928	      5.24833373	      5.87546410	      6.93721013	      1.20282097	    -47.25451798	     -0.82474693	     -3.11119097	     13.59711873	     -2.25880164	      0.25317157	      1.79522309	     -7.84197453	     -3.50272961	     -7.47906961	    -13.55459248	     23.60889070	     89.95437384	      0.00000000	      0.00000000	      1.28501164	     11.22059888	     17.08053884	     36.89364711	     89.95437384	      0.00000000	      0.00000000
      0.79000000	     -3.88635608	     -2.62366157	      7.03035853	     -0.64028270	      0.88652583	     -1.41885864	     22.26411915	      1.60639361	    -15.24585904	    -26.10715534	     -0.45565582	      3.97487231	     -8.97115066	      5.12057361	      6.96612648	      7.12413628	      0.92090620	    -49.30020831	     -0.86045096	     -4.69911545	     13.51007751	     -1.89976619	      0.29537679	      1.85933222	     -7.72452728	     -3.43347857	     -7.58307072	    -13.38917838	     23.91007741	     89.95437384	      0.00000000	      0.00000000	      0.98360072	     11.15318769	     17.15028520	     36.64628320	     89.95437384	      0.00000000	      0.00000000
      0.80000000	     -3.70000731	     -2.30481965	      6.71254865	     -0.63359056	      0.88703657	     -1.41719957	     21.58743465	      1.46751377	    -15.19544692	    -26.22068737	     -0.45763733	      4.26604271	     -8.61598133	      4.95517157	      7.64145727	      6.82704729	      0.78669812	    -51.11534262	     -0.89213103	     -5.30138366	     13.06032601	     -1.81408129	     -0.00681287	      1.56861151	     -7.26239731	     -3.30268504	     -7.66876264	    -13.23636687	     24.19218391	     89.95437384	      0.00000000	      0.00000000	      0.76132577	     11.08636604	     17.17857328	     36.51701124	     89.95437384	      0.00000000	      0.00000000
      0.81000000	     -3.91416596	     -2.68213003	      6.84148969	     -0.62734924	      0.88665627	     -1.41573540	     21.34458531	      1.93004103	    -15.55400427	    -26.15160186	     -0.45643156	      5.05126232	     -7.86636475	      4.73106482	      9.32336926	      7.37622256	      0.47407828	    -53.44007802	     -0.93270531	     -5.95772548	     12.97627834	     -1.49064514	      0.26980738	      1.96758760	     -7.39762267	     -3.18324877	     -7.85364089	    -12.86631514	     24.55196949	     89.95437384	      0.00000000	      0.00000000	      0.51861930	     10.95692869	     17.33953370	     36.09776647	     89.95437384	      0.00000000	      0.00000000
      0.82000000	     -3.75381679	     -2.63680125	      6.69028377	     -0.62095744	      0.88701500	     -1.41426477	     20.69932824	      2.08059616	    -15.53736878	    -26.18316198	     -0.45698239	      5.69093007	     -7.51128024	      4.52768922	     10.23945099	      7.41969221	      0.45314814	    -55.24297315	     -0.96417177	     -5.91461181	     13.02563630	     -1.39496483	      0.03381565	      1.97483684	     -7.14986170	     -2.93683060	     -7.98970683	    -12.71413520	     24.70717599	     89.95437384	      0.00000000	      0.00000000	      0.37447646	     10.86386690	     17.38274068	     35.69691454	     89.95437384	      0.00000000	      0.00000000
      0.83000000	     -3.58359760	     -2.34953305	      6.38719756	     -0.61461905	      0.88744459	     -1.41277751	     20.07465720	      1.94911707	    -15.52050072	    -26.24748197	     -0.45810498	      5.87935478	     -7.25601700	      4.38900619	     11.01615168	      7.17697508	      0.62694142	    -56.76452775	     -0.99072791	     -5.75899603	     12.81128021	     -1.39367589	     -0.27661521	      1.70888338	     -6.68936583	     -2.75082402	     -8.10715654	    -12.60282263	     24.98047795	     89.95437384	      0.00000000	      0.00000000	      0.15125091	     10.77805185	     17.41842045	     35.56042062	     89.95437384	      0.00000000	      0.00000000
      0.84000000	     -3.64289605	     -2.68804303	      6.33909255	     -0.60855069	      0.88735485	     -1.41135159	     19.68068467	      2.48926488	    -15.51455582	    -26.13925806	     -0.45621612	      6.58716517	     -6.78381917	      4.15327354	     12.40629442	      7.64046462	      0.68270262	    -58.58370276	     -1.02247850	     -4.81730124	     13.31395932	     -1.33437140	     -0.21807386	      2.11404525	     -6.60073659	     -2.53269100	     -8.31715178	    -12.34781603	     25.31831916	     89.95437384	      0.00000000	      0.00000000	      0.00732156	     10.57621034	     17.69438872	     35.02330775	     89.95437384	      0.00000000	      0.00000000
      0.85000000	     -3.47672548	     -2.38556722	      6.05526852	     -0.60255020	      0.88786136	     -1.41012157	     19.08100215	      2.32537347	    -15.49380489	    -26.21167161	     -0.45747997	      6.77215779	     -6.62121705	      4.02885589	     13.25843759	      7.36173542	      1.00494897	    -59.83938063	     -1.04439421	     -4.65426242	     13.08353528	     -1.34374594	     -0.56187347	      1.84616867	     -6.15805299	     -2.24803007	     -8.45781868	    -12.22287990	     25.51203936	     89.95437384	      0.00000000	      0.00000000	     -0.18422455	     10.47907921	     17.70646649	     34.84337306	     89.95437384	      0.00000000	      0.00000000
      0.86000000	     -3.35553376	     -2.38030845	      5.84280026	     -0.59652755	      0.88824051	     -1.40870836	     18.48836899	      2.54931884	    -15.29597429	    -26.17097108	     -0.45676961	      7.34622406	     -6.36833859	      3.84009863	     14.28925954	      7.43286728	      1.30532949	    -61.10113285	     -1.06641594	     -4.12676027	     13.39474986	     -1.33534050	     -0.77049555	      1.88553453	     -5.87956077	     -1.92179764	     -8.61870220	    -12.00590115	     25.63374360	     89.95437384	      0.00000000	      0.00000000	     -0.30455692	     10.35754915	     17.81063214	     34.28852321	     89.95437384	      0.00000000	      0.00000000
